<svg width="46" height="31" viewBox="0 0 46 31" fill="none" xmlns="http://www.w3.org/2000/svg">
<path fill-rule="evenodd" clip-rule="evenodd" d="M29.3136 12.8117C29.9238 13.4219 29.9238 14.4112 29.3136 15.0214L22.0219 22.3131C21.4117 22.9233 20.4224 22.9233 19.8122 22.3131L15.6455 18.1464C15.0353 17.5362 15.0353 16.5469 15.6455 15.9367C16.2557 15.3265 17.245 15.3265 17.8552 15.9367L20.917 18.9985L27.1039 12.8117C27.7141 12.2015 28.7034 12.2015 29.3136 12.8117Z" fill="#10BB87"/>
<path fill-rule="evenodd" clip-rule="evenodd" d="M24.9418 3.9339C21.712 3.9339 18.9182 5.81375 17.6006 8.54599C17.2464 9.2806 16.3867 9.61917 15.6266 9.32341C14.6042 8.92559 13.4908 8.70657 12.3225 8.70657C7.28815 8.70657 3.20703 12.7877 3.20703 17.822C3.20703 22.8563 7.28815 26.9374 12.3225 26.9374H36.5905C40.0164 26.9374 42.7937 24.1601 42.7937 20.7341C42.7937 17.3082 40.0164 14.5309 36.5905 14.5309C36.033 14.5309 35.495 14.604 34.9845 14.7404C34.4841 14.874 33.95 14.751 33.5584 14.4119C33.1669 14.0728 32.9688 13.5617 33.0297 13.0473C33.0672 12.7302 33.0865 12.407 33.0865 12.0786C33.0865 7.58041 29.44 3.9339 24.9418 3.9339ZM15.4587 5.98746C17.4624 2.87435 20.9597 0.808899 24.9418 0.808899C30.9429 0.808899 35.8484 5.49941 36.1923 11.4143C36.3244 11.4087 36.4571 11.4059 36.5905 11.4059C41.7423 11.4059 45.9187 15.5823 45.9187 20.7341C45.9187 25.886 41.7423 30.0624 36.5905 30.0624H12.3225C5.56226 30.0624 0.0820312 24.5822 0.0820312 17.822C0.0820312 11.0618 5.56226 5.58157 12.3225 5.58157C13.4051 5.58157 14.4566 5.72249 15.4587 5.98746Z" fill="#10BB87"/>
</svg>
