<svg width="32" height="42" viewBox="0 0 32 42" fill="none" xmlns="http://www.w3.org/2000/svg">
<path fill-rule="evenodd" clip-rule="evenodd" d="M20.3634 0.812347C20.9397 1.05772 21.3138 1.62358 21.3138 2.24998V16.8295H29.5013C30.0569 16.8295 30.5708 17.1246 30.8508 17.6045C31.1309 18.0844 31.135 18.6769 30.8617 19.1607L29.8365 20.975C25.9488 27.8555 20.9907 34.0734 15.1483 39.3954L13.491 40.9051C13.0336 41.3218 12.3734 41.4293 11.8074 41.1792C11.2414 40.9292 10.8763 40.3687 10.8763 39.75V25.294H2.41797C1.55502 25.294 0.855469 24.5945 0.855469 23.7315C0.855469 23.452 0.928855 23.1897 1.05741 22.9627C4.72155 16.1888 9.41276 10.0233 14.9643 4.68528L18.6683 1.12368C19.1199 0.689512 19.787 0.566972 20.3634 0.812347ZM5.09417 22.169H12.4388C13.3017 22.169 14.0013 22.8686 14.0013 23.7315V36.1969C19.0401 31.4353 23.359 25.9639 26.8209 19.9545H19.7513C18.8884 19.9545 18.1888 19.255 18.1888 18.392V5.92001L17.1302 6.93788C12.4411 11.4467 8.39258 16.5717 5.09417 22.169Z" fill="#10BB87"/>
</svg>
