<svg width="38" height="38" viewBox="0 0 38 38" fill="none" xmlns="http://www.w3.org/2000/svg">
<path d="M8.29997 8.33822C11.0365 5.59231 14.818 3.89581 18.9987 3.89581C27.3405 3.89581 34.1029 10.6582 34.1029 19C34.1029 27.3418 27.3405 34.1041 18.9987 34.1041C10.6569 34.1041 3.89453 27.3418 3.89453 19C3.89453 18.137 3.19498 17.4375 2.33203 17.4375C1.46909 17.4375 0.769531 18.137 0.769531 19C0.769531 29.0677 8.93101 37.2291 18.9987 37.2291C29.0664 37.2291 37.2279 29.0677 37.2279 19C37.2279 8.93229 29.0664 0.770813 18.9987 0.770813C13.9539 0.770813 9.38531 2.82211 6.08647 6.13231C6.03345 6.18551 5.98506 6.24158 5.94129 6.30001L3.32136 3.68007C3.03556 3.39427 2.61022 3.2996 2.23018 3.43719C1.85014 3.57479 1.58399 3.91981 1.5474 4.32234L0.810831 12.4246C0.782842 12.7325 0.893051 13.0369 1.11165 13.2555C1.33025 13.4741 1.63465 13.5843 1.94253 13.5563L10.0448 12.8197C10.4473 12.7831 10.7923 12.517 10.9299 12.137C11.0675 11.7569 10.9729 11.3316 10.6871 11.0458L8.12848 8.4872C8.18831 8.44239 8.24565 8.39273 8.29997 8.33822Z" fill="#10BB87"/>
<path d="M20.5612 8.58331C20.5612 7.72037 19.8616 7.02081 18.9987 7.02081C18.1358 7.02081 17.4362 7.72037 17.4362 8.58331V19C17.4362 19.5387 17.7137 20.0395 18.1706 20.325L24.4206 24.2312C25.1524 24.6886 26.1163 24.4661 26.5737 23.7344C27.0311 23.0026 26.8086 22.0386 26.0768 21.5812L20.5612 18.134V8.58331Z" fill="#10BB87"/>
</svg>
