<svg width="17" height="16" viewBox="0 0 17 16" fill="none" xmlns="http://www.w3.org/2000/svg">
<path fill-rule="evenodd" clip-rule="evenodd" d="M14.9577 2.37502H3.44725L2.46377 0.612184C2.35338 0.414315 2.14455 0.291687 1.91797 0.291687H0.667969C0.322791 0.291687 0.0429688 0.571509 0.0429688 0.916687C0.0429688 1.26186 0.322791 1.54169 0.667969 1.54169H1.55097L2.52155 3.2814L4.75994 8.23409L4.76224 8.23914L4.95939 8.67537L2.71202 11.0726C2.55043 11.2449 2.49985 11.4937 2.58129 11.7155C2.66273 11.9373 2.86228 12.0942 3.09702 12.121L5.14546 12.3551C7.70769 12.6479 10.2949 12.6479 12.8572 12.3551L14.9056 12.121C15.2486 12.0818 15.4948 11.772 15.4556 11.4291C15.4164 11.0861 15.1066 10.8399 14.7637 10.8791L12.7152 11.1132C10.2473 11.3952 7.75531 11.3952 5.2874 11.1132L4.47446 11.0203L6.12394 9.26082C6.1399 9.2438 6.15472 9.22612 6.1684 9.20789L6.79575 9.28951C7.67485 9.4039 8.56348 9.42633 9.44724 9.35643C11.5085 9.19341 13.4188 8.21259 14.7525 6.63258L15.2343 6.0619C15.2504 6.04273 15.2654 6.02261 15.2792 6.00164L16.177 4.63343C16.8134 3.66362 16.1177 2.37502 14.9577 2.37502ZM6.21486 7.95339C6.07702 7.93546 5.95816 7.8479 5.90012 7.72172L5.89901 7.71928L4.04858 3.62502H14.9577C15.1235 3.62502 15.2228 3.80911 15.1319 3.94765L14.2548 5.28438L13.7973 5.82629C12.679 7.15118 11.0771 7.97362 9.34868 8.11032C8.55153 8.17337 7.74999 8.15314 6.95704 8.04996L6.21486 7.95339Z" fill="black"/>
<path d="M4.41797 13.4167C3.72761 13.4167 3.16797 13.9763 3.16797 14.6667C3.16797 15.357 3.72761 15.9167 4.41797 15.9167C5.10833 15.9167 5.66797 15.357 5.66797 14.6667C5.66797 13.9763 5.10833 13.4167 4.41797 13.4167Z" fill="black"/>
<path d="M12.3346 14.6667C12.3346 13.9763 12.8943 13.4167 13.5846 13.4167C14.275 13.4167 14.8346 13.9763 14.8346 14.6667C14.8346 15.357 14.275 15.9167 13.5846 15.9167C12.8943 15.9167 12.3346 15.357 12.3346 14.6667Z" fill="black"/>
</svg>
