<svg width="25" height="24" viewBox="0 0 25 24" fill="none" xmlns="http://www.w3.org/2000/svg">
<g id="Outline/Communication/Phone">
<path id="Icon" fill-rule="evenodd" clip-rule="evenodd" d="M6.34194 9.85635C8.12925 13.7482 11.3097 16.8424 15.2635 18.519L15.276 18.5243L16.0398 18.8647C17.0124 19.2981 18.1557 18.9903 18.7793 18.1272L20.0536 16.3635C20.1315 16.2558 20.1114 16.106 20.008 16.0225L17.7832 14.2277C17.6726 14.1385 17.51 14.1593 17.4254 14.2734L16.5595 15.4418C16.3492 15.7256 15.9695 15.8242 15.6477 15.6786C12.6913 14.3406 10.3156 11.9649 8.97769 9.00851C8.83208 8.68674 8.93067 8.30699 9.21442 8.09671L10.3828 7.23085C10.497 7.14625 10.5177 6.98362 10.4285 6.87302L8.63348 4.64798C8.55006 4.54456 8.40031 4.52448 8.29258 4.60225L6.51928 5.88241C5.6505 6.5096 5.34454 7.66244 5.788 8.63789L6.34134 9.85505C6.34154 9.85549 6.34174 9.85592 6.34194 9.85635ZM14.6716 19.8973C10.3756 18.0737 6.92021 14.7107 4.97816 10.4809L4.97699 10.4784L4.42249 9.25868C3.68339 7.63293 4.19332 5.71152 5.6413 4.66621L7.41459 3.38605C8.16871 2.84164 9.21694 2.98225 9.80094 3.70614L11.596 5.93119C12.2205 6.70536 12.0751 7.84375 11.2759 8.43599L10.6064 8.93215C11.7373 11.1265 13.5297 12.9189 15.7241 14.0498L16.2203 13.3803C16.8125 12.5812 17.9509 12.4357 18.7251 13.0603L20.9498 14.855C21.6739 15.4392 21.8143 16.4879 21.2695 17.242L19.9951 19.0057C18.9558 20.4442 17.0504 20.9572 15.4293 20.2349L14.6716 19.8973Z" fill="black"/>
</g>
</svg>
