<svg width="16" height="16" viewBox="0 0 16 16" fill="none" xmlns="http://www.w3.org/2000/svg">
<g id="Outline/Communication/Chat">
<g id="Icon">
<path d="M5.33464 6.33336C4.8744 6.33336 4.5013 6.70646 4.5013 7.16669C4.5013 7.62693 4.8744 8.00003 5.33464 8.00003C5.79487 8.00003 6.16797 7.62693 6.16797 7.16669C6.16797 6.70646 5.79487 6.33336 5.33464 6.33336Z" fill="black"/>
<path d="M8.0013 6.33336C7.54106 6.33336 7.16797 6.70646 7.16797 7.16669C7.16797 7.62693 7.54106 8.00003 8.0013 8.00003C8.46154 8.00003 8.83464 7.62693 8.83464 7.16669C8.83464 6.70646 8.46154 6.33336 8.0013 6.33336Z" fill="black"/>
<path d="M9.83464 7.16669C9.83464 6.70646 10.2077 6.33336 10.668 6.33336C11.1282 6.33336 11.5013 6.70646 11.5013 7.16669C11.5013 7.62693 11.1282 8.00003 10.668 8.00003C10.2077 8.00003 9.83464 7.62693 9.83464 7.16669Z" fill="black"/>
<path fill-rule="evenodd" clip-rule="evenodd" d="M10.7351 3.06189C8.93899 2.90871 7.13348 2.89982 5.33593 3.0353L5.20711 3.04501C3.49291 3.17421 2.16797 4.60277 2.16797 6.32183V12C2.16797 12.1759 2.26041 12.3389 2.4114 12.4292C2.56239 12.5194 2.74971 12.5237 2.90466 12.4405L5.51185 11.0393C5.63313 10.9741 5.76866 10.94 5.90634 10.94H11.8906C12.6453 10.94 13.2921 10.4004 13.4274 9.65793C13.7016 8.15311 13.7233 6.61313 13.4915 5.10119L13.4232 4.65564C13.2989 3.84447 12.6353 3.22393 11.8176 3.1542L10.7351 3.06189ZM5.41109 4.03248C7.15532 3.90101 8.90729 3.90964 10.6501 4.05827L11.7326 4.15058C12.0902 4.18108 12.3804 4.45244 12.4348 4.80715L12.5031 5.2527C12.718 6.65489 12.6979 8.08309 12.4436 9.47868C12.3949 9.74586 12.1622 9.94003 11.8906 9.94003H5.90634C5.60345 9.94003 5.30528 10.0151 5.03847 10.1585L3.16797 11.1637V6.32183C3.16797 5.1259 4.08971 4.13207 5.28227 4.04219L5.41109 4.03248Z" fill="black"/>
</g>
</g>
</svg>
