<svg width="12" height="8" viewBox="0 0 12 8" fill="none" xmlns="http://www.w3.org/2000/svg">
<path fill-rule="evenodd" clip-rule="evenodd" d="M11.1654 4C11.1654 3.72385 10.9415 3.5 10.6654 3.5H1.33203C1.05589 3.5 0.832031 3.72385 0.832031 4C0.832031 4.27614 1.05589 4.5 1.33203 4.5H10.6654C10.9415 4.5 11.1654 4.27614 11.1654 4Z" fill="black"/>
<path fill-rule="evenodd" clip-rule="evenodd" d="M11.1654 0.666664C11.1654 0.390522 10.9415 0.166664 10.6654 0.166664H1.33203C1.05589 0.166664 0.832031 0.390522 0.832031 0.666664C0.832031 0.942806 1.05589 1.16666 1.33203 1.16666H10.6654C10.9415 1.16666 11.1654 0.942806 11.1654 0.666664Z" fill="black"/>
<path fill-rule="evenodd" clip-rule="evenodd" d="M11.1654 7.33333C11.1654 7.05719 10.9415 6.83333 10.6654 6.83333H1.33203C1.05589 6.83333 0.832031 7.05719 0.832031 7.33333C0.832031 7.60947 1.05589 7.83333 1.33203 7.83333H10.6654C10.9415 7.83333 11.1654 7.60947 11.1654 7.33333Z" fill="black"/>
</svg>
