<svg width="502" height="314" viewBox="0 0 502 314" fill="none" xmlns="http://www.w3.org/2000/svg">
<path d="M22.9987 241.396C23.7926 241.396 24.4362 242.039 24.4362 242.833V244.75C24.4362 245.544 23.7926 246.188 22.9987 246.188C22.2048 246.188 21.5612 245.544 21.5612 244.75V242.833C21.5612 242.039 22.2048 241.396 22.9987 241.396Z" fill="black" fill-opacity="0.07"/>
<path fill-rule="evenodd" clip-rule="evenodd" d="M11.9779 262C11.9779 255.913 16.9121 250.979 22.9987 250.979C29.0853 250.979 34.0195 255.913 34.0195 262C34.0195 268.087 29.0853 273.021 22.9987 273.021C16.9121 273.021 11.9779 268.087 11.9779 262ZM22.9987 253.854C18.4999 253.854 14.8529 257.501 14.8529 262C14.8529 266.499 18.4999 270.146 22.9987 270.146C27.4975 270.146 31.1445 266.499 31.1445 262C31.1445 257.501 27.4975 253.854 22.9987 253.854Z" fill="black" fill-opacity="0.07"/>
<path d="M10.4623 247.431C9.90093 246.869 8.99076 246.869 8.42938 247.431C7.868 247.992 7.868 248.902 8.42938 249.464L9.78467 250.819C10.346 251.38 11.2562 251.38 11.8176 250.819C12.379 250.258 12.379 249.347 11.8176 248.786L10.4623 247.431Z" fill="black" fill-opacity="0.07"/>
<path d="M43.6029 262C43.6029 262.794 42.9593 263.438 42.1654 263.438H40.2487C39.4548 263.438 38.8112 262.794 38.8112 262C38.8112 261.206 39.4548 260.563 40.2487 260.563H42.1654C42.9593 260.563 43.6029 261.206 43.6029 262Z" fill="black" fill-opacity="0.07"/>
<path d="M37.568 249.464C38.1294 248.902 38.1294 247.992 37.568 247.431C37.0066 246.869 36.0965 246.869 35.5351 247.431L34.1798 248.786C33.6184 249.347 33.6184 250.258 34.1798 250.819C34.7412 251.38 35.6513 251.38 36.2127 250.819L37.568 249.464Z" fill="black" fill-opacity="0.07"/>
<path d="M22.9987 277.813C23.7926 277.813 24.4362 278.456 24.4362 279.25V281.167C24.4362 281.961 23.7926 282.604 22.9987 282.604C22.2048 282.604 21.5612 281.961 21.5612 281.167V279.25C21.5612 278.456 22.2048 277.813 22.9987 277.813Z" fill="black" fill-opacity="0.07"/>
<path d="M36.2128 273.181C35.6515 272.62 34.7413 272.62 34.1799 273.181C33.6185 273.743 33.6185 274.653 34.1799 275.214L35.5352 276.569C36.0966 277.131 37.0067 277.131 37.5681 276.569C38.1295 276.008 38.1295 275.098 37.5681 274.536L36.2128 273.181Z" fill="black" fill-opacity="0.07"/>
<path d="M7.1862 262C7.1862 262.794 6.54261 263.438 5.7487 263.438H3.83203C3.03812 263.438 2.39453 262.794 2.39453 262C2.39453 261.206 3.03812 260.563 3.83203 260.563H5.7487C6.54261 260.563 7.1862 261.206 7.1862 262Z" fill="black" fill-opacity="0.07"/>
<path d="M11.8175 275.214C12.3788 274.653 12.3788 273.743 11.8175 273.181C11.2561 272.62 10.3459 272.62 9.78454 273.181L8.42925 274.536C7.86787 275.098 7.86787 276.008 8.42925 276.569C8.99063 277.131 9.9008 277.131 10.4622 276.569L11.8175 275.214Z" fill="black" fill-opacity="0.07"/>
<path fill-rule="evenodd" clip-rule="evenodd" d="M174.017 18.1385C166.802 18.6436 161.105 24.6565 161.105 32C161.105 39.6744 167.327 45.8958 175.001 45.8958C181.15 45.8958 186.367 41.9018 188.197 36.3674C186.788 36.9495 185.244 37.2708 183.626 37.2708C177.01 37.2708 171.647 31.9075 171.647 25.2916C171.647 22.6099 172.529 20.134 174.017 18.1385ZM158.23 32C158.23 22.7377 165.739 15.2291 175.001 15.2291C175.863 15.2291 176.711 15.2942 177.539 15.4201C178.112 15.5071 178.577 15.9297 178.717 16.4919C178.858 17.0542 178.648 17.646 178.183 17.9928C175.958 19.6554 174.522 22.3056 174.522 25.2916C174.522 30.3197 178.598 34.3958 183.626 34.3958C185.8 34.3958 187.793 33.6356 189.358 32.3654C189.808 32.0003 190.433 31.941 190.943 32.2148C191.454 32.4886 191.75 33.0421 191.695 33.6188C190.88 42.1222 183.718 48.7708 175.001 48.7708C165.739 48.7708 158.23 41.2622 158.23 32Z" fill="black" fill-opacity="0.07"/>
<path fill-rule="evenodd" clip-rule="evenodd" d="M326.017 18.1385C318.802 18.6436 313.105 24.6565 313.105 32C313.105 39.6744 319.327 45.8958 327.001 45.8958C333.15 45.8958 338.367 41.9018 340.197 36.3674C338.788 36.9495 337.244 37.2708 335.626 37.2708C329.01 37.2708 323.647 31.9075 323.647 25.2916C323.647 22.6099 324.529 20.134 326.017 18.1385ZM310.23 32C310.23 22.7377 317.739 15.2291 327.001 15.2291C327.863 15.2291 328.711 15.2942 329.539 15.4201C330.112 15.5071 330.577 15.9297 330.717 16.4919C330.858 17.0542 330.648 17.646 330.183 17.9928C327.958 19.6554 326.522 22.3056 326.522 25.2916C326.522 30.3197 330.598 34.3958 335.626 34.3958C337.8 34.3958 339.793 33.6356 341.358 32.3654C341.808 32.0003 342.433 31.941 342.943 32.2148C343.454 32.4886 343.75 33.0421 343.695 33.6188C342.88 42.1222 335.718 48.7708 327.001 48.7708C317.739 48.7708 310.23 41.2622 310.23 32Z" fill="black" fill-opacity="0.07"/>
<path fill-rule="evenodd" clip-rule="evenodd" d="M22.0167 172.138C14.8017 172.644 9.10547 178.657 9.10547 186C9.10547 193.674 15.3268 199.896 23.0013 199.896C29.1497 199.896 34.3665 195.902 36.1972 190.367C34.7883 190.949 33.2442 191.271 31.6263 191.271C25.0104 191.271 19.6471 185.908 19.6471 179.292C19.6471 176.61 20.529 174.134 22.0167 172.138ZM6.23047 186C6.23047 176.738 13.739 169.229 23.0013 169.229C23.8631 169.229 24.7105 169.294 25.5389 169.42C26.1119 169.507 26.5766 169.93 26.7174 170.492C26.8583 171.054 26.6477 171.646 26.1834 171.993C23.9582 173.655 22.5221 176.306 22.5221 179.292C22.5221 184.32 26.5982 188.396 31.6263 188.396C33.8002 188.396 35.7928 187.636 37.3582 186.365C37.808 186 38.433 185.941 38.9435 186.215C39.4539 186.489 39.7502 187.042 39.6949 187.619C38.8796 196.122 31.7177 202.771 23.0013 202.771C13.739 202.771 6.23047 195.262 6.23047 186Z" fill="black" fill-opacity="0.07"/>
<path fill-rule="evenodd" clip-rule="evenodd" d="M478.017 246.138C470.802 246.644 465.105 252.657 465.105 260C465.105 267.674 471.327 273.896 479.001 273.896C485.15 273.896 490.367 269.902 492.197 264.367C490.788 264.949 489.244 265.271 487.626 265.271C481.01 265.271 475.647 259.908 475.647 253.292C475.647 250.61 476.529 248.134 478.017 246.138ZM462.23 260C462.23 250.738 469.739 243.229 479.001 243.229C479.863 243.229 480.711 243.294 481.539 243.42C482.112 243.507 482.577 243.93 482.717 244.492C482.858 245.054 482.648 245.646 482.183 245.993C479.958 247.655 478.522 250.306 478.522 253.292C478.522 258.32 482.598 262.396 487.626 262.396C489.8 262.396 491.793 261.636 493.358 260.365C493.808 260 494.433 259.941 494.943 260.215C495.454 260.489 495.75 261.042 495.695 261.619C494.88 270.122 487.718 276.771 479.001 276.771C469.739 276.771 462.23 269.262 462.23 260Z" fill="black" fill-opacity="0.07"/>
<g filter="url(#filter0_d_220_1082)">
<rect x="148" y="159" width="54" height="54" rx="10" fill="white"/>
</g>
<path fill-rule="evenodd" clip-rule="evenodd" d="M184.278 179.001C179.28 178.536 174.247 178.536 169.248 179.001C169.155 179.009 169.119 179.065 169.114 179.079C168.629 180.501 168.629 182.052 169.114 183.474C169.119 183.488 169.155 183.544 169.248 183.553C174.246 184.017 179.28 184.017 184.278 183.553C184.372 183.544 184.408 183.488 184.413 183.474C184.898 182.052 184.898 180.501 184.413 179.079C184.408 179.065 184.372 179.009 184.278 179.001ZM184.394 177.756C179.319 177.284 174.208 177.284 169.133 177.756C168.573 177.808 168.103 178.172 167.931 178.675C167.356 180.359 167.356 182.195 167.931 183.878C168.103 184.381 168.573 184.745 169.133 184.797C174.208 185.269 179.319 185.269 184.394 184.797C184.953 184.745 185.424 184.381 185.595 183.878C186.171 182.195 186.171 180.359 185.595 178.675C185.424 178.172 184.953 177.808 184.394 177.756Z" fill="#FFA630"/>
<path fill-rule="evenodd" clip-rule="evenodd" d="M184.371 178.005C179.311 177.535 174.216 177.535 169.156 178.005C168.69 178.048 168.306 178.351 168.168 178.756C167.611 180.387 167.611 182.166 168.168 183.797C168.306 184.203 168.69 184.505 169.156 184.548C174.216 185.019 179.311 185.019 184.371 184.548C184.837 184.505 185.22 184.203 185.359 183.797C185.916 182.166 185.916 180.387 185.359 178.756C185.22 178.351 184.837 178.048 184.371 178.005ZM169.11 177.507C174.2 177.034 179.327 177.034 184.417 177.507C185.07 177.568 185.627 177.994 185.832 178.594C186.425 180.33 186.425 182.223 185.832 183.959C185.627 184.56 185.07 184.986 184.417 185.046C179.327 185.519 174.2 185.519 169.11 185.046C168.457 184.986 167.9 184.56 167.695 183.959C167.102 182.223 167.102 180.33 167.695 178.594C167.9 177.994 168.457 177.568 169.11 177.507ZM169.323 179.245C168.892 180.563 168.892 181.991 169.323 183.309C174.271 183.765 179.255 183.765 184.204 183.309C184.634 181.991 184.634 180.563 184.204 179.245C179.255 178.788 174.271 178.788 169.323 179.245ZM169.225 178.752C174.239 178.286 179.288 178.286 184.301 178.752C184.495 178.77 184.613 178.892 184.649 178.998C185.153 180.472 185.153 182.081 184.649 183.555L184.413 183.474L184.649 183.555C184.613 183.661 184.495 183.784 184.301 183.802C179.288 184.268 174.239 184.268 169.225 183.802C169.032 183.784 168.914 183.661 168.878 183.555C168.374 182.081 168.374 180.472 168.878 178.998C168.914 178.892 169.032 178.77 169.225 178.752Z" fill="#FFA630"/>
<path fill-rule="evenodd" clip-rule="evenodd" d="M168.974 188.391C168.675 189.9 168.675 191.553 168.974 193.062C171.595 193.447 174.232 193.447 176.853 193.062C177.152 191.553 177.152 189.9 176.853 188.391C174.232 188.006 171.595 188.006 168.974 188.391ZM177.373 187.206C174.407 186.734 171.42 186.734 168.454 187.206C168.127 187.258 167.853 187.622 167.752 188.125C167.416 189.808 167.416 191.644 167.752 193.328C167.853 193.831 168.127 194.195 168.454 194.247C171.42 194.719 174.407 194.719 177.373 194.247C177.7 194.195 177.974 193.831 178.075 193.328C178.411 191.644 178.411 189.808 178.075 188.125C177.974 187.622 177.7 187.258 177.373 187.206Z" fill="#FFA630"/>
<path fill-rule="evenodd" clip-rule="evenodd" d="M177.334 187.453C174.394 186.985 171.433 186.985 168.493 187.453C168.411 187.466 168.313 187.522 168.217 187.648C168.122 187.772 168.042 187.952 167.997 188.174C167.668 189.825 167.668 191.628 167.997 193.279C168.042 193.501 168.122 193.681 168.217 193.805C168.313 193.931 168.411 193.987 168.493 194C171.433 194.468 174.394 194.468 177.334 194C177.416 193.987 177.514 193.931 177.61 193.805C177.705 193.681 177.785 193.501 177.83 193.279C178.159 191.628 178.159 189.825 177.83 188.174C177.785 187.952 177.705 187.772 177.61 187.648C177.514 187.522 177.416 187.466 177.334 187.453ZM168.415 186.959C171.407 186.483 174.42 186.483 177.412 186.959C177.657 186.998 177.859 187.149 178.008 187.345C178.157 187.541 178.264 187.795 178.32 188.076C178.663 189.792 178.663 191.661 178.32 193.377C178.264 193.658 178.157 193.912 178.008 194.108C177.859 194.303 177.657 194.455 177.412 194.494C174.42 194.97 171.407 194.97 168.415 194.494C168.17 194.455 167.968 194.303 167.819 194.108C167.67 193.912 167.563 193.658 167.507 193.377C167.164 191.661 167.164 189.792 167.507 188.076C167.563 187.795 167.67 187.541 167.819 187.345C167.968 187.149 168.17 186.998 168.415 186.959ZM169.186 188.613C168.938 189.985 168.938 191.468 169.186 192.84C171.667 193.188 174.16 193.188 176.641 192.84C176.889 191.468 176.889 189.985 176.641 188.613C174.16 188.265 171.667 188.265 169.186 188.613ZM168.937 188.143C171.583 187.755 174.244 187.755 176.89 188.143L177.064 188.169L177.099 188.342C177.403 189.884 177.403 191.569 177.099 193.11L177.064 193.284L176.89 193.309C174.244 193.698 171.583 193.698 168.937 193.309L168.763 193.284L168.728 193.11C168.424 191.569 168.424 189.884 168.728 188.342L168.763 188.169L168.937 188.143Z" fill="#FFA630"/>
<path d="M163.934 175.373C163.934 175.029 164.212 174.75 164.556 174.75C164.9 174.75 165.179 175.029 165.179 175.373V196.627C165.179 196.971 164.9 197.25 164.556 197.25C164.212 197.25 163.934 196.971 163.934 196.627V175.373Z" fill="#FFA630"/>
<path fill-rule="evenodd" clip-rule="evenodd" d="M163.688 175.373C163.688 174.891 164.078 174.5 164.56 174.5C165.042 174.5 165.433 174.891 165.433 175.373V196.627C165.433 197.109 165.042 197.5 164.56 197.5C164.078 197.5 163.688 197.109 163.688 196.627V175.373ZM164.56 175C164.354 175 164.188 175.167 164.188 175.373V196.627C164.188 196.833 164.354 197 164.56 197C164.766 197 164.933 196.833 164.933 196.627V175.373C164.933 175.167 164.766 175 164.56 175Z" fill="#FFA630"/>
<path d="M252.915 267.75C251.856 267.75 250.998 268.608 250.998 269.667C250.998 270.725 251.856 271.583 252.915 271.583C253.973 271.583 254.832 270.725 254.832 269.667C254.832 268.608 253.973 267.75 252.915 267.75Z" fill="black" fill-opacity="0.07"/>
<path d="M247.165 271.583C246.106 271.583 245.248 272.441 245.248 273.5C245.248 274.559 246.106 275.417 247.165 275.417C248.223 275.417 249.082 274.559 249.082 273.5C249.082 272.441 248.223 271.583 247.165 271.583Z" fill="black" fill-opacity="0.07"/>
<path fill-rule="evenodd" clip-rule="evenodd" d="M255.777 245.229L255.771 245.229H246.225L246.22 245.229H244.29C243.496 245.229 242.852 245.873 242.852 246.667C242.852 247.461 243.496 248.104 244.29 248.104H244.788V257.854C244.788 260.642 243.949 263.365 242.382 265.67L236.452 274.387C234.946 276.601 236.334 279.622 238.995 279.921C246.972 280.819 255.025 280.819 263.002 279.921C265.662 279.622 267.05 276.601 265.545 274.387L259.615 265.67C258.047 263.365 257.209 260.642 257.209 257.854V248.104H257.707C258.5 248.104 259.144 247.461 259.144 246.667C259.144 245.873 258.5 245.229 257.707 245.229H255.777ZM239.316 277.064C247.08 277.938 254.917 277.938 262.68 277.064C263.19 277.007 263.456 276.428 263.167 276.004L257.238 267.287C256.815 266.666 256.437 266.02 256.104 265.354H245.892C245.559 266.02 245.181 266.666 244.759 267.287L238.829 276.004C238.541 276.428 238.807 277.007 239.316 277.064ZM247.013 262.479H254.984C254.555 260.984 254.334 259.427 254.334 257.854V248.104L247.663 248.104V257.854C247.663 259.427 247.442 260.984 247.013 262.479Z" fill="black" fill-opacity="0.07"/>
<path d="M480.915 113.75C479.856 113.75 478.998 114.608 478.998 115.667C478.998 116.725 479.856 117.583 480.915 117.583C481.973 117.583 482.832 116.725 482.832 115.667C482.832 114.608 481.973 113.75 480.915 113.75Z" fill="black" fill-opacity="0.07"/>
<path d="M475.165 117.583C474.106 117.583 473.248 118.441 473.248 119.5C473.248 120.559 474.106 121.417 475.165 121.417C476.223 121.417 477.082 120.559 477.082 119.5C477.082 118.441 476.223 117.583 475.165 117.583Z" fill="black" fill-opacity="0.07"/>
<path fill-rule="evenodd" clip-rule="evenodd" d="M483.777 91.2291L483.771 91.2291H474.225L474.22 91.2291H472.29C471.496 91.2291 470.852 91.8727 470.852 92.6666C470.852 93.4605 471.496 94.1041 472.29 94.1041H472.788V103.854C472.788 106.642 471.949 109.365 470.382 111.67L464.452 120.387C462.946 122.601 464.334 125.622 466.995 125.921C474.972 126.819 483.025 126.819 491.002 125.921C493.662 125.622 495.05 122.601 493.545 120.387L487.615 111.67C486.047 109.365 485.209 106.642 485.209 103.854V94.1041H485.707C486.5 94.1041 487.144 93.4605 487.144 92.6666C487.144 91.8727 486.5 91.2291 485.707 91.2291H483.777ZM467.316 123.064C475.08 123.938 482.917 123.938 490.68 123.064C491.19 123.007 491.456 122.428 491.167 122.004L485.238 113.287C484.815 112.666 484.437 112.02 484.104 111.354H473.892C473.559 112.02 473.181 112.666 472.759 113.287L466.829 122.004C466.541 122.428 466.807 123.007 467.316 123.064ZM475.013 108.479H482.984C482.555 106.984 482.334 105.427 482.334 103.854V94.1041L475.663 94.1041V103.854C475.663 105.427 475.442 106.984 475.013 108.479Z" fill="black" fill-opacity="0.07"/>
<path d="M404.915 265.75C403.856 265.75 402.998 266.608 402.998 267.667C402.998 268.725 403.856 269.583 404.915 269.583C405.973 269.583 406.832 268.725 406.832 267.667C406.832 266.608 405.973 265.75 404.915 265.75Z" fill="black" fill-opacity="0.07"/>
<path d="M399.165 269.583C398.106 269.583 397.248 270.441 397.248 271.5C397.248 272.559 398.106 273.417 399.165 273.417C400.223 273.417 401.082 272.559 401.082 271.5C401.082 270.441 400.223 269.583 399.165 269.583Z" fill="black" fill-opacity="0.07"/>
<path fill-rule="evenodd" clip-rule="evenodd" d="M407.777 243.229L407.771 243.229H398.225L398.22 243.229H396.29C395.496 243.229 394.852 243.873 394.852 244.667C394.852 245.461 395.496 246.104 396.29 246.104H396.788V255.854C396.788 258.642 395.949 261.365 394.382 263.67L388.452 272.387C386.946 274.601 388.334 277.622 390.995 277.921C398.972 278.819 407.025 278.819 415.002 277.921C417.662 277.622 419.05 274.601 417.545 272.387L411.615 263.67C410.047 261.365 409.209 258.642 409.209 255.854V246.104H409.707C410.5 246.104 411.144 245.461 411.144 244.667C411.144 243.873 410.5 243.229 409.707 243.229H407.777ZM391.316 275.064C399.08 275.938 406.917 275.938 414.68 275.064C415.19 275.007 415.456 274.428 415.167 274.004L409.238 265.287C408.815 264.666 408.437 264.02 408.104 263.354H397.892C397.559 264.02 397.181 264.666 396.759 265.287L390.829 274.004C390.541 274.428 390.807 275.007 391.316 275.064ZM399.013 260.479H406.984C406.555 258.984 406.334 257.427 406.334 255.854V246.104L399.663 246.104V255.854C399.663 257.427 399.442 258.984 399.013 260.479Z" fill="black" fill-opacity="0.07"/>
<path d="M24.9149 37.75C23.8564 37.75 22.9983 38.6081 22.9983 39.6666C22.9983 40.7252 23.8564 41.5833 24.9149 41.5833C25.9735 41.5833 26.8316 40.7252 26.8316 39.6666C26.8316 38.6081 25.9735 37.75 24.9149 37.75Z" fill="black" fill-opacity="0.07"/>
<path d="M19.1649 41.5833C18.1064 41.5833 17.2483 42.4414 17.2483 43.5C17.2483 44.5585 18.1064 45.4166 19.1649 45.4166C20.2235 45.4166 21.0816 44.5585 21.0816 43.5C21.0816 42.4414 20.2235 41.5833 19.1649 41.5833Z" fill="black" fill-opacity="0.07"/>
<path fill-rule="evenodd" clip-rule="evenodd" d="M27.7768 15.2291L27.7711 15.2291H18.2254L18.2197 15.2291H16.2899C15.496 15.2291 14.8524 15.8727 14.8524 16.6666C14.8524 17.4605 15.496 18.1041 16.2899 18.1041H16.7879V27.8542C16.7879 30.6418 15.9495 33.3649 14.3817 35.6697L8.45192 44.3871C6.94609 46.6009 8.33419 49.6218 10.9947 49.9211C18.9719 50.8186 27.0246 50.8186 35.0018 49.9211C37.6623 49.6218 39.0504 46.6009 37.5446 44.3871L31.6148 35.6697C30.047 33.3649 29.2086 30.6418 29.2086 27.8542V18.1041H29.7066C30.5005 18.1041 31.1441 17.4605 31.1441 16.6666C31.1441 15.8727 30.5005 15.2291 29.7066 15.2291H27.7768ZM11.3162 47.0642C19.0797 47.9376 26.9168 47.9376 34.6804 47.0642C35.19 47.0068 35.4559 46.4282 35.1674 46.0041L29.2376 37.2868C28.8155 36.6661 28.4371 36.0203 28.104 35.3541H17.8925C17.5594 36.0203 17.181 36.6661 16.7589 37.2867L10.8291 46.0041C10.5407 46.4282 10.8065 47.0068 11.3162 47.0642ZM19.0126 32.4791H26.9839C26.5549 30.9836 26.3336 29.4274 26.3336 27.8542V18.1041L19.6629 18.1041V27.8542C19.6629 29.4274 19.4416 30.9836 19.0126 32.4791Z" fill="black" fill-opacity="0.07"/>
<path d="M100.916 115.75C99.8576 115.75 98.9995 116.608 98.9995 117.667C98.9995 118.725 99.8576 119.583 100.916 119.583C101.975 119.583 102.833 118.725 102.833 117.667C102.833 116.608 101.975 115.75 100.916 115.75Z" fill="black" fill-opacity="0.07"/>
<path d="M95.1661 119.583C94.1076 119.583 93.2495 120.441 93.2495 121.5C93.2495 122.559 94.1076 123.417 95.1661 123.417C96.2247 123.417 97.0828 122.559 97.0828 121.5C97.0828 120.441 96.2247 119.583 95.1661 119.583Z" fill="black" fill-opacity="0.07"/>
<path fill-rule="evenodd" clip-rule="evenodd" d="M103.781 93.2292L103.772 93.2291H94.2265L94.2179 93.2292H92.2911C91.4972 93.2292 90.8536 93.8727 90.8536 94.6667C90.8536 95.4606 91.4972 96.1042 92.2911 96.1042H92.789V105.805C84.2566 109.838 83.024 121.6 90.693 127.287L91.2584 127.707C95.8559 131.117 102.143 131.117 106.74 127.707L107.306 127.287C114.975 121.6 113.742 109.838 105.21 105.805V96.1042H105.708C106.502 96.1042 107.145 95.4606 107.145 94.6667C107.145 93.8727 106.502 93.2292 105.708 93.2292H103.781ZM92.9711 125.398C96.5514 128.053 101.447 128.053 105.028 125.398L105.593 124.978C109.456 122.113 110.392 117.251 108.745 113.354H89.254C87.6067 117.251 88.5426 122.113 92.4056 124.978L92.9711 125.398ZM91.1351 110.479H106.864C105.997 109.568 104.924 108.803 103.652 108.255C102.853 107.911 102.335 107.123 102.335 106.253V96.1042H95.664V106.253C95.664 107.123 95.1461 107.911 94.3465 108.255C93.0751 108.803 92.0019 109.568 91.1351 110.479Z" fill="black" fill-opacity="0.07"/>
<path d="M328.916 191.75C327.858 191.75 326.999 192.608 326.999 193.667C326.999 194.725 327.858 195.583 328.916 195.583C329.975 195.583 330.833 194.725 330.833 193.667C330.833 192.608 329.975 191.75 328.916 191.75Z" fill="black" fill-opacity="0.07"/>
<path d="M323.166 195.583C322.108 195.583 321.249 196.441 321.249 197.5C321.249 198.559 322.108 199.417 323.166 199.417C324.225 199.417 325.083 198.559 325.083 197.5C325.083 196.441 324.225 195.583 323.166 195.583Z" fill="black" fill-opacity="0.07"/>
<path fill-rule="evenodd" clip-rule="evenodd" d="M331.781 169.229L331.772 169.229H322.227L322.218 169.229H320.291C319.497 169.229 318.854 169.873 318.854 170.667C318.854 171.461 319.497 172.104 320.291 172.104H320.789V181.805C312.257 185.838 311.024 197.6 318.693 203.287L319.258 203.707C323.856 207.117 330.143 207.117 334.74 203.707L335.306 203.287C342.975 197.6 341.742 185.838 333.21 181.805V172.104H333.708C334.502 172.104 335.145 171.461 335.145 170.667C335.145 169.873 334.502 169.229 333.708 169.229H331.781ZM320.971 201.398C324.551 204.053 329.447 204.053 333.028 201.398L333.593 200.978C337.456 198.113 338.392 193.251 336.745 189.354H317.254C315.607 193.251 316.543 198.113 320.406 200.978L320.971 201.398ZM319.135 186.479H334.864C333.997 185.568 332.924 184.803 331.652 184.255C330.853 183.911 330.335 183.123 330.335 182.253V172.104H323.664V182.253C323.664 183.123 323.146 183.911 322.347 184.255C321.075 184.803 320.002 185.568 319.135 186.479Z" fill="black" fill-opacity="0.07"/>
<path fill-rule="evenodd" clip-rule="evenodd" d="M172.139 241.89C172.487 241.49 173.028 241.313 173.546 241.432C180.463 243.02 183.959 250.6 183.137 257.381C182.817 260.017 182.027 262.084 180.865 263.728C180.858 263.738 180.85 263.748 180.843 263.758C181.107 263.629 181.351 263.489 181.579 263.341C182.714 262.604 183.546 261.632 184.631 260.367C184.762 260.214 184.896 260.057 185.036 259.895C185.349 259.532 185.823 259.349 186.299 259.407C186.775 259.465 187.19 259.757 187.407 260.185C188.361 262.07 188.897 264.2 188.897 266.452C188.897 274.126 182.676 280.347 175.001 280.347C167.327 280.347 161.105 274.126 161.105 266.452C161.105 261.589 163.604 257.311 167.381 254.83L167.511 254.699C167.577 254.632 167.65 254.572 167.729 254.519C169.388 253.403 170.58 252.489 171.382 251.415C172.14 250.4 172.605 249.162 172.605 247.285C172.605 245.895 172.349 244.568 171.882 243.347C171.692 242.851 171.791 242.291 172.139 241.89ZM175.329 245.231C175.429 245.901 175.48 246.587 175.48 247.285C175.48 249.716 174.852 251.573 173.685 253.135C172.59 254.603 171.073 255.729 169.452 256.825L169.313 256.964C169.239 257.039 169.157 257.106 169.068 257.162C166.005 259.123 163.98 262.551 163.98 266.452C163.98 272.538 168.915 277.472 175.001 277.472C181.088 277.472 186.022 272.538 186.022 266.452C186.022 265.455 185.89 264.491 185.643 263.575C184.915 264.364 184.11 265.125 183.144 265.752C181.375 266.901 179.16 267.556 175.96 267.556C175.304 267.556 174.731 267.112 174.567 266.477C174.404 265.842 174.691 265.176 175.266 264.86C176.567 264.143 177.67 263.267 178.517 262.068C179.363 260.873 180.011 259.276 180.283 257.035C180.871 252.185 178.863 247.397 175.329 245.231Z" fill="black" fill-opacity="0.07"/>
<path fill-rule="evenodd" clip-rule="evenodd" d="M476.139 163.89C476.487 163.49 477.028 163.313 477.546 163.432C484.463 165.02 487.959 172.6 487.137 179.381C486.817 182.017 486.027 184.084 484.865 185.728C484.858 185.738 484.85 185.748 484.843 185.758C485.107 185.629 485.351 185.489 485.579 185.341C486.714 184.604 487.546 183.632 488.631 182.367C488.762 182.214 488.896 182.057 489.036 181.895C489.349 181.532 489.823 181.349 490.299 181.407C490.775 181.465 491.19 181.757 491.407 182.185C492.361 184.07 492.897 186.2 492.897 188.452C492.897 196.126 486.676 202.347 479.001 202.347C471.327 202.347 465.105 196.126 465.105 188.452C465.105 183.589 467.604 179.311 471.381 176.83L471.511 176.699C471.577 176.632 471.65 176.572 471.729 176.519C473.388 175.403 474.58 174.489 475.382 173.415C476.14 172.4 476.605 171.162 476.605 169.285C476.605 167.895 476.349 166.568 475.882 165.347C475.692 164.851 475.791 164.291 476.139 163.89ZM479.329 167.231C479.429 167.901 479.48 168.587 479.48 169.285C479.48 171.716 478.852 173.573 477.685 175.135C476.59 176.603 475.073 177.729 473.452 178.825L473.313 178.964C473.239 179.039 473.157 179.106 473.068 179.162C470.005 181.123 467.98 184.551 467.98 188.452C467.98 194.538 472.915 199.472 479.001 199.472C485.088 199.472 490.022 194.538 490.022 188.452C490.022 187.455 489.89 186.491 489.643 185.575C488.915 186.364 488.11 187.125 487.144 187.752C485.375 188.901 483.16 189.556 479.96 189.556C479.304 189.556 478.731 189.112 478.567 188.477C478.404 187.842 478.691 187.176 479.266 186.86C480.567 186.143 481.67 185.267 482.517 184.068C483.363 182.873 484.011 181.276 484.283 179.035C484.871 174.185 482.863 169.397 479.329 167.231Z" fill="black" fill-opacity="0.07"/>
<path fill-rule="evenodd" clip-rule="evenodd" d="M324.139 241.89C324.487 241.49 325.028 241.313 325.546 241.432C332.463 243.02 335.959 250.6 335.137 257.381C334.817 260.017 334.027 262.084 332.865 263.728C332.858 263.738 332.85 263.748 332.843 263.758C333.107 263.629 333.351 263.489 333.579 263.341C334.714 262.604 335.546 261.632 336.631 260.367C336.762 260.214 336.896 260.057 337.036 259.895C337.349 259.532 337.823 259.349 338.299 259.407C338.775 259.465 339.19 259.757 339.407 260.185C340.361 262.07 340.897 264.2 340.897 266.452C340.897 274.126 334.676 280.347 327.001 280.347C319.327 280.347 313.105 274.126 313.105 266.452C313.105 261.589 315.604 257.311 319.381 254.83L319.511 254.699C319.577 254.632 319.65 254.572 319.729 254.519C321.388 253.403 322.58 252.489 323.382 251.415C324.14 250.4 324.605 249.162 324.605 247.285C324.605 245.895 324.349 244.568 323.882 243.347C323.692 242.851 323.791 242.291 324.139 241.89ZM327.329 245.231C327.429 245.901 327.48 246.587 327.48 247.285C327.48 249.716 326.852 251.573 325.685 253.135C324.59 254.603 323.073 255.729 321.452 256.825L321.313 256.964C321.239 257.039 321.157 257.106 321.068 257.162C318.005 259.123 315.98 262.551 315.98 266.452C315.98 272.538 320.915 277.472 327.001 277.472C333.088 277.472 338.022 272.538 338.022 266.452C338.022 265.455 337.89 264.491 337.643 263.575C336.915 264.364 336.11 265.125 335.144 265.752C333.375 266.901 331.16 267.556 327.96 267.556C327.304 267.556 326.731 267.112 326.567 266.477C326.404 265.842 326.691 265.176 327.266 264.86C328.567 264.143 329.67 263.267 330.517 262.068C331.363 260.873 332.011 259.276 332.283 257.035C332.871 252.185 330.863 247.397 327.329 245.231Z" fill="black" fill-opacity="0.07"/>
<g filter="url(#filter1_d_220_1082)">
<rect x="72" y="7" width="54" height="54" rx="10" fill="white"/>
</g>
<path d="M95.8371 27.1629C96.2032 27.529 96.7968 27.529 97.1629 27.1629L98.0625 26.2633V33.0625H91.2633L92.1629 32.1629C92.529 31.7968 92.529 31.2032 92.1629 30.8371C91.7968 30.471 91.2032 30.471 90.8371 30.8371L88.3371 33.3371C87.971 33.7032 87.971 34.2968 88.3371 34.6629L90.8371 37.1629C91.2032 37.529 91.7968 37.529 92.1629 37.1629C92.529 36.7968 92.529 36.2032 92.1629 35.8371L91.2633 34.9375H98.0625V41.7367L97.1629 40.8371C96.7968 40.471 96.2032 40.471 95.8371 40.8371C95.471 41.2032 95.471 41.7968 95.8371 42.1629L98.3371 44.6629C98.7032 45.029 99.2968 45.029 99.6629 44.6629L102.163 42.1629C102.529 41.7968 102.529 41.2032 102.163 40.8371C101.797 40.471 101.203 40.471 100.837 40.8371L99.9375 41.7367V34.9375H106.737L105.837 35.8371C105.471 36.2032 105.471 36.7968 105.837 37.1629C106.203 37.529 106.797 37.529 107.163 37.1629L109.663 34.6629C110.029 34.2968 110.029 33.7032 109.663 33.3371L107.163 30.8371C106.797 30.471 106.203 30.471 105.837 30.8371C105.471 31.2032 105.471 31.7968 105.837 32.1629L106.737 33.0625H99.9375V26.2633L100.837 27.1629C101.203 27.529 101.797 27.529 102.163 27.1629C102.529 26.7968 102.529 26.2032 102.163 25.8371L99.6629 23.3371C99.2968 22.971 98.7032 22.971 98.3371 23.3371L95.8371 25.8371C95.471 26.2032 95.471 26.7968 95.8371 27.1629Z" fill="#FFA630"/>
<path fill-rule="evenodd" clip-rule="evenodd" d="M96.1391 165.89C96.4874 165.49 97.0282 165.313 97.5457 165.432C104.463 167.02 107.959 174.6 107.137 181.381C106.817 184.017 106.027 186.084 104.865 187.728C104.858 187.738 104.85 187.748 104.843 187.758C105.107 187.629 105.351 187.489 105.579 187.341C106.714 186.604 107.546 185.632 108.631 184.367C108.762 184.214 108.896 184.057 109.036 183.895C109.349 183.532 109.823 183.349 110.299 183.407C110.775 183.465 111.19 183.757 111.407 184.185C112.361 186.07 112.897 188.2 112.897 190.452C112.897 198.126 106.676 204.347 99.0013 204.347C91.3268 204.347 85.1055 198.126 85.1055 190.452C85.1055 185.589 87.6042 181.311 91.3812 178.83L91.5107 178.699C91.5772 178.632 91.6502 178.572 91.7286 178.519C93.3881 177.403 94.5798 176.489 95.3821 175.415C96.14 174.4 96.6055 173.162 96.6055 171.285C96.6055 169.895 96.3488 168.568 95.8815 167.347C95.6917 166.851 95.7908 166.291 96.1391 165.89ZM99.3295 169.231C99.429 169.901 99.4805 170.587 99.4805 171.285C99.4805 173.716 98.8524 175.573 97.6855 177.135C96.5896 178.603 95.0727 179.729 93.4519 180.825L93.3133 180.964C93.2391 181.039 93.1568 181.106 93.0681 181.162C90.0054 183.123 87.9805 186.551 87.9805 190.452C87.9805 196.538 92.9147 201.472 99.0013 201.472C105.088 201.472 110.022 196.538 110.022 190.452C110.022 189.455 109.89 188.491 109.643 187.575C108.915 188.364 108.11 189.125 107.144 189.752C105.375 190.901 103.16 191.556 99.9596 191.556C99.3036 191.556 98.7309 191.112 98.5675 190.477C98.404 189.842 98.6914 189.176 99.266 188.86C100.567 188.143 101.67 187.267 102.517 186.068C103.363 184.873 104.011 183.276 104.283 181.035C104.871 176.185 102.863 171.397 99.3295 169.231Z" fill="black" fill-opacity="0.07"/>
<path fill-rule="evenodd" clip-rule="evenodd" d="M240.526 169.229C239.404 169.229 238.357 169.79 237.735 170.723L230.855 181.042C230.434 181.673 230.384 182.482 230.723 183.162C234.488 190.691 239.72 197.391 246.111 202.869L249.466 205.746C250.349 206.502 251.651 206.502 252.533 205.746L255.889 202.869C262.28 197.391 267.512 190.691 271.276 183.162C271.616 182.482 271.565 181.673 271.144 181.042L264.265 170.723C263.643 169.79 262.595 169.229 261.474 169.229H240.526ZM240.127 172.317C240.216 172.184 240.365 172.104 240.526 172.104H245.01L241.34 180.914C241.255 181.117 241.191 181.326 241.148 181.538C239.799 181.438 238.451 181.317 237.105 181.175L234.411 180.892L240.127 172.317ZM234.284 183.769C237.721 190.075 242.26 195.72 247.69 200.435L241.7 184.46C240.066 184.348 238.434 184.206 236.804 184.034L234.284 183.769ZM244.837 184.639L251 201.073L257.162 184.639C253.056 184.826 248.943 184.826 244.837 184.639ZM260.3 184.46L254.309 200.435C259.739 195.72 264.278 190.075 267.716 183.769L265.195 184.034C263.566 184.206 261.934 184.348 260.3 184.46ZM267.589 180.892L264.894 181.175C263.548 181.317 262.2 181.438 260.851 181.538C260.808 181.326 260.745 181.117 260.66 180.914L256.989 172.104H261.474C261.634 172.104 261.784 172.184 261.873 172.317L267.589 180.892ZM257.884 181.726C253.298 181.964 248.702 181.964 244.116 181.726L248.125 172.104H253.875L257.884 181.726Z" fill="black" fill-opacity="0.07"/>
<path fill-rule="evenodd" clip-rule="evenodd" d="M468.526 15.2291C467.404 15.2291 466.357 15.7896 465.735 16.7227L458.855 27.0417C458.434 27.6735 458.384 28.4824 458.723 29.1615C462.488 36.6906 467.72 43.3912 474.111 48.8694L477.466 51.7456C478.349 52.5019 479.651 52.5019 480.533 51.7456L483.889 48.8694C490.28 43.3912 495.512 36.6906 499.276 29.1615C499.616 28.4824 499.565 27.6735 499.144 27.0417L492.265 16.7227C491.643 15.7896 490.595 15.2291 489.474 15.2291H468.526ZM468.127 18.3175C468.216 18.1842 468.365 18.1041 468.526 18.1041H473.01L469.34 26.9137C469.255 27.1166 469.191 27.3259 469.148 27.5384C467.799 27.438 466.451 27.317 465.105 27.1752L462.411 26.8916L468.127 18.3175ZM462.284 29.7692C465.721 36.0749 470.26 41.7201 475.69 46.4348L469.7 30.4602C468.066 30.3479 466.434 30.206 464.804 30.0344L462.284 29.7692ZM472.837 30.6394L479 47.0726L485.162 30.6394C481.056 30.8262 476.943 30.8262 472.837 30.6394ZM488.3 30.4602L482.309 46.4348C487.739 41.7201 492.278 36.0749 495.716 29.7692L493.195 30.0344C491.566 30.206 489.934 30.3479 488.3 30.4602ZM495.589 26.8916L492.894 27.1752C491.548 27.317 490.2 27.438 488.851 27.5384C488.808 27.3259 488.745 27.1166 488.66 26.9137L484.989 18.1041H489.474C489.634 18.1041 489.784 18.1842 489.873 18.3175L495.589 26.8916ZM485.884 27.7259C481.298 27.9641 476.702 27.9641 472.116 27.7259L476.125 18.1041H481.875L485.884 27.7259Z" fill="black" fill-opacity="0.07"/>
<path fill-rule="evenodd" clip-rule="evenodd" d="M392.526 167.229C391.404 167.229 390.357 167.79 389.735 168.723L382.855 179.042C382.434 179.673 382.384 180.482 382.723 181.162C386.488 188.691 391.72 195.391 398.111 200.869L401.466 203.746C402.349 204.502 403.651 204.502 404.533 203.746L407.889 200.869C414.28 195.391 419.512 188.691 423.276 181.162C423.616 180.482 423.565 179.673 423.144 179.042L416.265 168.723C415.643 167.79 414.595 167.229 413.474 167.229H392.526ZM392.127 170.317C392.216 170.184 392.365 170.104 392.526 170.104H397.01L393.34 178.914C393.255 179.117 393.191 179.326 393.148 179.538C391.799 179.438 390.451 179.317 389.105 179.175L386.411 178.892L392.127 170.317ZM386.284 181.769C389.721 188.075 394.26 193.72 399.69 198.435L393.7 182.46C392.066 182.348 390.434 182.206 388.804 182.034L386.284 181.769ZM396.837 182.639L403 199.073L409.162 182.639C405.056 182.826 400.943 182.826 396.837 182.639ZM412.3 182.46L406.309 198.435C411.739 193.72 416.278 188.075 419.716 181.769L417.195 182.034C415.566 182.206 413.934 182.348 412.3 182.46ZM419.589 178.892L416.894 179.175C415.548 179.317 414.2 179.438 412.851 179.538C412.808 179.326 412.745 179.117 412.66 178.914L408.989 170.104H413.474C413.634 170.104 413.784 170.184 413.873 170.317L419.589 178.892ZM409.884 179.726C405.298 179.964 400.702 179.964 396.116 179.726L400.125 170.104H405.875L409.884 179.726Z" fill="black" fill-opacity="0.07"/>
<path fill-rule="evenodd" clip-rule="evenodd" d="M239.98 97.5417C239.98 94.1014 242.769 91.3125 246.21 91.3125C248.136 91.3125 249.859 92.1872 251.001 93.5612C252.144 92.1872 253.866 91.3125 255.793 91.3125C259.233 91.3125 262.022 94.1014 262.022 97.5417C262.022 98.7766 261.663 99.9276 261.043 100.896H262.501C265.412 100.896 267.772 103.256 267.772 106.167V110C267.772 111.541 266.733 112.84 265.316 113.233C265.592 116.733 265.432 120.257 264.839 123.723C264.484 125.792 262.803 127.377 260.717 127.611L258.964 127.806C253.672 128.398 248.331 128.398 243.038 127.806L241.286 127.611C239.199 127.377 237.519 125.792 237.164 123.723C236.57 120.257 236.41 116.733 236.686 113.233C235.27 112.84 234.23 111.541 234.23 110V106.167C234.23 103.256 236.59 100.896 239.501 100.896H240.96C240.34 99.9276 239.98 98.7766 239.98 97.5417ZM249.564 97.5417C249.564 95.6892 248.062 94.1875 246.21 94.1875C244.357 94.1875 242.855 95.6892 242.855 97.5417C242.855 99.3941 244.357 100.896 246.21 100.896C248.062 100.896 249.564 99.3941 249.564 97.5417ZM255.793 100.896C257.645 100.896 259.147 99.3941 259.147 97.5417C259.147 95.6892 257.645 94.1875 255.793 94.1875C253.941 94.1875 252.439 95.6892 252.439 97.5417C252.439 99.3941 253.941 100.896 255.793 100.896ZM237.105 106.167C237.105 104.843 238.178 103.771 239.501 103.771H249.564V110.479H237.585C237.32 110.479 237.105 110.265 237.105 110V106.167ZM252.439 113.354H262.442C262.711 116.652 262.564 119.972 262.005 123.237C261.867 124.044 261.211 124.662 260.398 124.753L258.645 124.949C256.582 125.18 254.511 125.317 252.439 125.36V113.354ZM252.439 110.479H264.418C264.683 110.479 264.897 110.265 264.897 110V106.167C264.897 104.843 263.824 103.771 262.501 103.771H252.439V110.479ZM249.564 113.354V125.36C247.492 125.317 245.421 125.18 243.358 124.949L241.605 124.753C240.791 124.662 240.136 124.044 239.998 123.237C239.438 119.972 239.292 116.652 239.561 113.354H249.564Z" fill="black" fill-opacity="0.07"/>
<path fill-rule="evenodd" clip-rule="evenodd" d="M391.98 95.5417C391.98 92.1014 394.769 89.3125 398.21 89.3125C400.136 89.3125 401.859 90.1872 403.001 91.5612C404.144 90.1872 405.866 89.3125 407.793 89.3125C411.233 89.3125 414.022 92.1014 414.022 95.5417C414.022 96.7766 413.663 97.9276 413.043 98.8958H414.501C417.412 98.8958 419.772 101.256 419.772 104.167V108C419.772 109.541 418.733 110.84 417.316 111.233C417.592 114.733 417.432 118.257 416.839 121.723C416.484 123.792 414.803 125.377 412.717 125.611L410.964 125.806C405.672 126.398 400.331 126.398 395.038 125.806L393.286 125.611C391.199 125.377 389.519 123.792 389.164 121.723C388.57 118.257 388.41 114.733 388.686 111.233C387.27 110.84 386.23 109.541 386.23 108V104.167C386.23 101.256 388.59 98.8958 391.501 98.8958H392.96C392.34 97.9276 391.98 96.7766 391.98 95.5417ZM401.564 95.5417C401.564 93.6892 400.062 92.1875 398.21 92.1875C396.357 92.1875 394.855 93.6892 394.855 95.5417C394.855 97.3941 396.357 98.8958 398.21 98.8958C400.062 98.8958 401.564 97.3941 401.564 95.5417ZM407.793 98.8958C409.645 98.8958 411.147 97.3941 411.147 95.5417C411.147 93.6892 409.645 92.1875 407.793 92.1875C405.941 92.1875 404.439 93.6892 404.439 95.5417C404.439 97.3941 405.941 98.8958 407.793 98.8958ZM389.105 104.167C389.105 102.843 390.178 101.771 391.501 101.771H401.564V108.479H389.585C389.32 108.479 389.105 108.265 389.105 108V104.167ZM404.439 111.354H414.442C414.711 114.652 414.564 117.972 414.005 121.237C413.867 122.044 413.211 122.662 412.398 122.753L410.645 122.949C408.582 123.18 406.511 123.317 404.439 123.36V111.354ZM404.439 108.479H416.418C416.683 108.479 416.897 108.265 416.897 108V104.167C416.897 102.843 415.824 101.771 414.501 101.771H404.439V108.479ZM401.564 111.354V123.36C399.492 123.317 397.421 123.18 395.358 122.949L393.605 122.753C392.791 122.662 392.136 122.044 391.998 121.237C391.438 117.972 391.292 114.652 391.561 111.354H401.564Z" fill="black" fill-opacity="0.07"/>
<g filter="url(#filter2_d_220_1082)">
<rect x="72" y="235" width="54" height="54" rx="10" fill="white"/>
</g>
<path fill-rule="evenodd" clip-rule="evenodd" d="M90.569 251.655C90.445 250.166 92.1136 249.342 93.259 250.107L93.6295 250.355C99.279 254.129 104.566 258.388 109.427 263.081C110.638 264.25 109.57 266.095 108.059 265.933L101.476 265.228C100.806 265.156 100.189 265.516 99.9342 266.078L97.2734 271.949C96.6308 273.367 94.5141 273.235 94.0929 271.705C92.3244 265.281 91.1571 258.716 90.6052 252.089L90.569 251.655ZM92.4653 251.832L92.4737 251.934C93.0022 258.279 94.105 264.567 95.7692 270.726L98.2264 265.304C98.8269 263.979 100.231 263.209 101.676 263.364L107.685 264.007C103.026 259.559 97.9749 255.513 92.588 251.914L92.4653 251.832Z" fill="#FFA630"/>
<path fill-rule="evenodd" clip-rule="evenodd" d="M174.999 91.3125C174.205 91.3125 173.561 91.9561 173.561 92.75V100.417C173.561 100.416 173.561 100.417 173.561 100.417L173.561 114.331C172.141 113.124 170.3 112.396 168.29 112.396C163.792 112.396 160.145 116.043 160.145 120.542C160.145 125.04 163.792 128.688 168.29 128.688C172.789 128.688 176.436 125.04 176.436 120.542C176.436 120.314 176.427 120.088 176.409 119.865C176.427 119.774 176.436 119.68 176.436 119.583L176.436 101.854H186.499C189.41 101.854 191.77 99.4943 191.77 96.5833C191.77 93.6723 189.41 91.3125 186.499 91.3125H174.999ZM176.436 98.9792H186.499C187.822 98.9792 188.895 97.9065 188.895 96.5833C188.895 95.2602 187.822 94.1875 186.499 94.1875H176.436V98.9792ZM168.29 115.271C165.379 115.271 163.02 117.631 163.02 120.542C163.02 123.453 165.379 125.812 168.29 125.812C171.201 125.812 173.561 123.453 173.561 120.542C173.561 117.631 171.201 115.271 168.29 115.271Z" fill="black" fill-opacity="0.07"/>
<path fill-rule="evenodd" clip-rule="evenodd" d="M326.999 91.3125C326.205 91.3125 325.561 91.9561 325.561 92.75V100.417C325.561 100.416 325.561 100.417 325.561 100.417L325.561 114.331C324.141 113.124 322.3 112.396 320.29 112.396C315.792 112.396 312.145 116.043 312.145 120.542C312.145 125.04 315.792 128.688 320.29 128.688C324.789 128.688 328.436 125.04 328.436 120.542C328.436 120.314 328.427 120.088 328.409 119.865C328.427 119.774 328.436 119.68 328.436 119.583L328.436 101.854H338.499C341.41 101.854 343.77 99.4943 343.77 96.5833C343.77 93.6723 341.41 91.3125 338.499 91.3125H326.999ZM328.436 98.9792H338.499C339.822 98.9792 340.895 97.9065 340.895 96.5833C340.895 95.2602 339.822 94.1875 338.499 94.1875H328.436V98.9792ZM320.29 115.271C317.379 115.271 315.02 117.631 315.02 120.542C315.02 123.453 317.379 125.812 320.29 125.812C323.201 125.812 325.561 123.453 325.561 120.542C325.561 117.631 323.201 115.271 320.29 115.271Z" fill="black" fill-opacity="0.07"/>
<g filter="url(#filter3_d_220_1082)">
<rect x="224" y="7" width="54" height="54" rx="10" fill="white"/>
</g>
<path fill-rule="evenodd" clip-rule="evenodd" d="M249.108 24.1427C249.951 22.6899 252.049 22.6899 252.892 24.1427L255.473 28.5919C255.711 29.002 256.123 29.2819 256.592 29.3527L260.879 30.0002C262.747 30.2825 263.403 32.6419 261.947 33.8477L258.824 36.4356C258.385 36.7988 258.179 37.3718 258.286 37.9311L259.161 42.526C259.504 44.326 257.614 45.7245 255.993 44.8708L251.728 42.6251C251.272 42.3851 250.727 42.3851 250.272 42.6251L246.007 44.8708C244.385 45.7245 242.496 44.326 242.839 42.526L243.714 37.9311C243.82 37.3718 243.614 36.7988 243.176 36.4356L240.052 33.8477C238.597 32.6419 239.252 30.2825 241.121 30.0002L245.408 29.3527C245.877 29.2819 246.288 29.002 246.526 28.5919L249.108 24.1427ZM251.27 25.0838C251.15 24.8762 250.85 24.8762 250.729 25.0838L248.148 29.533C247.624 30.4352 246.719 31.0509 245.688 31.2067L241.401 31.8542C241.134 31.8945 241.04 32.2316 241.248 32.4038L244.372 34.9917C245.336 35.7908 245.79 37.0513 245.556 38.2818L244.681 42.8768C244.632 43.1339 244.902 43.3337 245.133 43.2117L249.398 40.966C250.401 40.4382 251.599 40.4382 252.601 40.966L256.866 43.2117C257.098 43.3337 257.368 43.1339 257.319 42.8768L256.444 38.2818C256.21 37.0513 256.663 35.7908 257.628 34.9917L260.751 32.4038C260.959 32.2316 260.866 31.8945 260.599 31.8542L256.312 31.2067C255.28 31.0509 254.375 30.4352 253.852 29.533L251.27 25.0838Z" fill="#FFA630"/>
<path fill-rule="evenodd" clip-rule="evenodd" d="M20.0992 94.8855C21.3918 92.6578 24.6088 92.6578 25.9014 94.8855L29.86 101.708C30.2249 102.336 30.8556 102.766 31.5745 102.874L38.148 103.867C41.0134 104.3 42.0185 107.918 39.7869 109.766L34.9974 113.735C34.3251 114.291 34.009 115.17 34.1723 116.028L35.514 123.073C36.0395 125.833 33.1422 127.977 30.6563 126.669L24.1165 123.225C23.4179 122.857 22.5828 122.857 21.8841 123.225L15.3444 126.669C12.8584 127.977 9.96113 125.833 10.4867 123.073L11.8283 116.028C11.9916 115.17 11.6755 114.291 11.0033 113.735L6.2137 109.766C3.98216 107.918 4.98726 104.3 7.85267 103.867L14.4262 102.874C15.145 102.766 15.7757 102.336 16.1406 101.708L20.0992 94.8855ZM23.4148 96.3284C23.2301 96.0102 22.7705 96.0102 22.5859 96.3284L18.6273 103.151C17.8245 104.534 16.437 105.478 14.8555 105.717L8.28203 106.71C7.87269 106.772 7.72911 107.288 8.0479 107.552L12.8375 111.521C14.3164 112.746 15.0118 114.679 14.6526 116.565L13.3109 123.611C13.2359 124.005 13.6497 124.312 14.0049 124.125L20.5446 120.681C22.0817 119.872 23.9189 119.872 25.456 120.681L31.9957 124.125C32.3509 124.312 32.7648 124.005 32.6897 123.611L31.3481 116.565C30.9888 114.679 31.6842 112.746 33.1632 111.521L37.9527 107.552C38.2715 107.288 38.1279 106.772 37.7186 106.71L31.1451 105.717C29.5636 105.478 28.1761 104.534 27.3734 103.151L23.4148 96.3284Z" fill="black" fill-opacity="0.07"/>
<path fill-rule="evenodd" clip-rule="evenodd" d="M400.099 16.8855C401.392 14.6578 404.609 14.6578 405.901 16.8855L409.86 23.7076C410.225 24.3364 410.856 24.7655 411.574 24.8741L418.148 25.867C421.013 26.2997 422.018 29.9176 419.787 31.7664L414.997 35.7345C414.325 36.2915 414.009 37.17 414.172 38.0276L415.514 45.0732C416.039 47.8331 413.142 49.9775 410.656 48.6685L404.117 45.2251C403.418 44.8572 402.583 44.8572 401.884 45.2251L395.344 48.6685C392.858 49.9775 389.961 47.8331 390.487 45.0732L391.828 38.0276C391.992 37.17 391.676 36.2915 391.003 35.7345L386.214 31.7664C383.982 29.9176 384.987 26.2997 387.853 25.867L394.426 24.8741C395.145 24.7655 395.776 24.3364 396.141 23.7076L400.099 16.8855ZM403.415 18.3284C403.23 18.0102 402.771 18.0102 402.586 18.3284L398.627 25.1505C397.825 26.5339 396.437 27.478 394.856 27.7169L388.282 28.7097C387.873 28.7715 387.729 29.2884 388.048 29.5525L392.837 33.5206C394.316 34.7459 395.012 36.6787 394.653 38.5654L393.311 45.611C393.236 46.0053 393.65 46.3116 394.005 46.1246L400.545 42.6812C402.082 41.8718 403.919 41.8718 405.456 42.6812L411.996 46.1246C412.351 46.3116 412.765 46.0053 412.69 45.611L411.348 38.5654C410.989 36.6787 411.684 34.7459 413.163 33.5206L417.953 29.5525C418.272 29.2884 418.128 28.7715 417.719 28.7097L411.145 27.7169C409.564 27.478 408.176 26.5339 407.373 25.1505L403.415 18.3284Z" fill="black" fill-opacity="0.07"/>
<defs>
<filter id="filter0_d_220_1082" x="132" y="152" width="86" height="86" filterUnits="userSpaceOnUse" color-interpolation-filters="sRGB">
<feFlood flood-opacity="0" result="BackgroundImageFix"/>
<feColorMatrix in="SourceAlpha" type="matrix" values="0 0 0 0 0 0 0 0 0 0 0 0 0 0 0 0 0 0 127 0" result="hardAlpha"/>
<feMorphology radius="4" operator="erode" in="SourceAlpha" result="effect1_dropShadow_220_1082"/>
<feOffset dy="9"/>
<feGaussianBlur stdDeviation="10"/>
<feComposite in2="hardAlpha" operator="out"/>
<feColorMatrix type="matrix" values="0 0 0 0 0 0 0 0 0 0 0 0 0 0 0 0 0 0 0.25 0"/>
<feBlend mode="normal" in2="BackgroundImageFix" result="effect1_dropShadow_220_1082"/>
<feBlend mode="normal" in="SourceGraphic" in2="effect1_dropShadow_220_1082" result="shape"/>
</filter>
<filter id="filter1_d_220_1082" x="56" y="0" width="86" height="86" filterUnits="userSpaceOnUse" color-interpolation-filters="sRGB">
<feFlood flood-opacity="0" result="BackgroundImageFix"/>
<feColorMatrix in="SourceAlpha" type="matrix" values="0 0 0 0 0 0 0 0 0 0 0 0 0 0 0 0 0 0 127 0" result="hardAlpha"/>
<feMorphology radius="4" operator="erode" in="SourceAlpha" result="effect1_dropShadow_220_1082"/>
<feOffset dy="9"/>
<feGaussianBlur stdDeviation="10"/>
<feComposite in2="hardAlpha" operator="out"/>
<feColorMatrix type="matrix" values="0 0 0 0 0 0 0 0 0 0 0 0 0 0 0 0 0 0 0.25 0"/>
<feBlend mode="normal" in2="BackgroundImageFix" result="effect1_dropShadow_220_1082"/>
<feBlend mode="normal" in="SourceGraphic" in2="effect1_dropShadow_220_1082" result="shape"/>
</filter>
<filter id="filter2_d_220_1082" x="56" y="228" width="86" height="86" filterUnits="userSpaceOnUse" color-interpolation-filters="sRGB">
<feFlood flood-opacity="0" result="BackgroundImageFix"/>
<feColorMatrix in="SourceAlpha" type="matrix" values="0 0 0 0 0 0 0 0 0 0 0 0 0 0 0 0 0 0 127 0" result="hardAlpha"/>
<feMorphology radius="4" operator="erode" in="SourceAlpha" result="effect1_dropShadow_220_1082"/>
<feOffset dy="9"/>
<feGaussianBlur stdDeviation="10"/>
<feComposite in2="hardAlpha" operator="out"/>
<feColorMatrix type="matrix" values="0 0 0 0 0 0 0 0 0 0 0 0 0 0 0 0 0 0 0.25 0"/>
<feBlend mode="normal" in2="BackgroundImageFix" result="effect1_dropShadow_220_1082"/>
<feBlend mode="normal" in="SourceGraphic" in2="effect1_dropShadow_220_1082" result="shape"/>
</filter>
<filter id="filter3_d_220_1082" x="208" y="0" width="86" height="86" filterUnits="userSpaceOnUse" color-interpolation-filters="sRGB">
<feFlood flood-opacity="0" result="BackgroundImageFix"/>
<feColorMatrix in="SourceAlpha" type="matrix" values="0 0 0 0 0 0 0 0 0 0 0 0 0 0 0 0 0 0 127 0" result="hardAlpha"/>
<feMorphology radius="4" operator="erode" in="SourceAlpha" result="effect1_dropShadow_220_1082"/>
<feOffset dy="9"/>
<feGaussianBlur stdDeviation="10"/>
<feComposite in2="hardAlpha" operator="out"/>
<feColorMatrix type="matrix" values="0 0 0 0 0 0 0 0 0 0 0 0 0 0 0 0 0 0 0.25 0"/>
<feBlend mode="normal" in2="BackgroundImageFix" result="effect1_dropShadow_220_1082"/>
<feBlend mode="normal" in="SourceGraphic" in2="effect1_dropShadow_220_1082" result="shape"/>
</filter>
</defs>
</svg>
