<svg width="14" height="15" viewBox="0 0 14 15" fill="none" xmlns="http://www.w3.org/2000/svg">
<path fill-rule="evenodd" clip-rule="evenodd" d="M3.45964 4.24998C3.45964 2.29397 5.04529 0.708313 7.0013 0.708313C8.95731 0.708313 10.543 2.29397 10.543 4.24998C10.543 6.20599 8.95731 7.79165 7.0013 7.79165C5.04529 7.79165 3.45964 6.20599 3.45964 4.24998ZM7.0013 1.95831C5.73565 1.95831 4.70964 2.98433 4.70964 4.24998C4.70964 5.51563 5.73565 6.54165 7.0013 6.54165C8.26696 6.54165 9.29297 5.51563 9.29297 4.24998C9.29297 2.98433 8.26696 1.95831 7.0013 1.95831Z" fill="black"/>
<path fill-rule="evenodd" clip-rule="evenodd" d="M3.66797 10.2916C2.63244 10.2916 1.79297 11.1311 1.79297 12.1666V13.1569C1.79297 13.172 1.8039 13.1848 1.81878 13.1872C5.25107 13.7476 8.75153 13.7476 12.1838 13.1872C12.1987 13.1848 12.2096 13.172 12.2096 13.1569V12.1666C12.2096 11.1311 11.3702 10.2916 10.3346 10.2916H10.0506C10.0286 10.2916 10.0068 10.2951 9.98591 10.3019L9.26465 10.5375C7.79396 11.0177 6.20864 11.0177 4.73796 10.5375L4.01669 10.3019C3.99582 10.2951 3.97399 10.2916 3.95203 10.2916H3.66797ZM0.542969 12.1666C0.542969 10.4408 1.94208 9.04165 3.66797 9.04165H3.95203C4.10577 9.04165 4.25855 9.06596 4.4047 9.11368L5.12596 9.34919C6.34453 9.74709 7.65808 9.74709 8.87665 9.34919L9.59791 9.11368C9.74406 9.06596 9.89684 9.04165 10.0506 9.04165H10.3346C12.0605 9.04165 13.4596 10.4408 13.4596 12.1666V13.1569C13.4596 13.7846 13.0047 14.3198 12.3852 14.4209C8.81955 15.0031 5.18305 15.0031 1.61736 14.4209C0.997872 14.3198 0.542969 13.7846 0.542969 13.1569V12.1666Z" fill="black"/>
</svg>
