<svg width="20" height="20" viewBox="0 0 20 20" fill="none" xmlns="http://www.w3.org/2000/svg">
<g id="Outline/Communication/User">
<g id="Icon">
<path fill-rule="evenodd" clip-rule="evenodd" d="M6.45964 6.24992C6.45964 4.29391 8.04529 2.70825 10.0013 2.70825C11.9573 2.70825 13.543 4.29391 13.543 6.24992C13.543 8.20593 11.9573 9.79158 10.0013 9.79158C8.04529 9.79158 6.45964 8.20593 6.45964 6.24992ZM10.0013 3.95825C8.73565 3.95825 7.70964 4.98427 7.70964 6.24992C7.70964 7.51557 8.73565 8.54158 10.0013 8.54158C11.267 8.54158 12.293 7.51557 12.293 6.24992C12.293 4.98427 11.267 3.95825 10.0013 3.95825Z" fill="#487B6C"/>
<path fill-rule="evenodd" clip-rule="evenodd" d="M6.66797 12.2916C5.63244 12.2916 4.79297 13.1311 4.79297 14.1666V15.1568C4.79297 15.1719 4.8039 15.1848 4.81878 15.1872C8.25107 15.7476 11.7515 15.7476 15.1838 15.1872C15.1987 15.1848 15.2096 15.1719 15.2096 15.1568V14.1666C15.2096 13.1311 14.3702 12.2916 13.3346 12.2916H13.0506C13.0286 12.2916 13.0068 12.2951 12.9859 12.3019L12.2646 12.5374C10.794 13.0176 9.20864 13.0176 7.73796 12.5374L7.01669 12.3019C6.99582 12.2951 6.97399 12.2916 6.95203 12.2916H6.66797ZM3.54297 14.1666C3.54297 12.4407 4.94208 11.0416 6.66797 11.0416H6.95203C7.10577 11.0416 7.25855 11.0659 7.4047 11.1136L8.12596 11.3491C9.34453 11.747 10.6581 11.747 11.8766 11.3491L12.5979 11.1136C12.7441 11.0659 12.8968 11.0416 13.0506 11.0416H13.3346C15.0605 11.0416 16.4596 12.4407 16.4596 14.1666V15.1568C16.4596 15.7845 16.0047 16.3197 15.3852 16.4208C11.8196 17.003 8.18305 17.003 4.61736 16.4208C3.99787 16.3197 3.54297 15.7845 3.54297 15.1568V14.1666Z" fill="#487B6C"/>
</g>
</g>
</svg>
