<svg width="50" height="50" viewBox="0 0 50 50" fill="none" xmlns="http://www.w3.org/2000/svg">
<g id="Castom/A_drop">
<g id="Icon">
<path fill-rule="evenodd" clip-rule="evenodd" d="M40.3009 29.0547C39.6612 36.815 33.1762 42.7875 25.3895 42.7875L24.6097 42.7875C16.823 42.7875 10.338 36.815 9.69836 29.0547C9.35474 24.8859 10.6424 20.7465 13.2902 17.5083L21.9432 6.92591C23.5229 4.99403 26.4763 4.99402 28.056 6.92591L36.709 17.5083C39.3568 20.7465 40.6445 24.8859 40.3009 29.0547ZM25.3895 40.0795C31.7669 40.0795 37.0781 35.188 37.602 28.8322C37.888 25.3627 36.8163 21.9175 34.6126 19.2225L25.9596 8.64007C25.4634 8.03328 24.5358 8.03328 24.0396 8.64008L15.3866 19.2225C13.1829 21.9175 12.1112 25.3627 12.3972 28.8322C12.9211 35.188 18.2323 40.0795 24.6097 40.0795L25.3895 40.0795Z" fill="#10BB87"/>
<path d="M17.7783 26.9909C17.0305 26.9909 16.4131 27.6011 16.5298 28.3397C17.1074 31.9955 19.995 34.8831 23.6508 35.4607C24.3895 35.5774 24.9996 34.96 24.9996 34.2122V34.2122C24.9996 33.4644 24.3852 32.8743 23.6571 32.7039C21.4948 32.1977 19.7928 30.4957 19.2866 28.3335C19.1162 27.6054 18.5261 26.9909 17.7783 26.9909V26.9909Z" fill="#10BB87"/>
</g>
<path id="Icon (Stroke)" fill-rule="evenodd" clip-rule="evenodd" d="M40.5072 29.0717C39.8586 36.9401 33.2833 42.9957 25.3882 42.9957L24.6084 42.9957C16.7133 42.9957 10.138 36.9401 9.48943 29.0717C9.14137 24.8491 10.4457 20.6563 13.1276 17.3764L21.7807 6.79396C23.4437 4.76013 26.5529 4.76012 28.216 6.79396L36.869 17.3764C39.5509 20.6563 40.8552 24.8491 40.5072 29.0717ZM25.3882 42.5791C33.0665 42.5791 39.4612 36.6898 40.0919 29.0375C40.4311 24.9225 39.16 20.8365 36.5464 17.6401L27.8934 7.05771C26.3971 5.22777 23.5995 5.22777 22.1032 7.05771L13.4502 17.6401C10.8366 20.8365 9.5655 24.9225 9.90468 29.0375C10.5355 36.6898 16.9301 42.5791 24.6084 42.5791L25.3882 42.5791ZM25.3882 39.8711C31.6571 39.8711 36.8781 35.0628 37.3931 28.815C37.6747 25.3993 36.6196 22.0075 34.45 19.3543L25.797 8.77187C25.3842 8.26703 24.6124 8.26702 24.1996 8.77188L15.5466 19.3543C13.3771 22.0075 12.322 25.3993 12.6035 28.815C13.1185 35.0628 18.3395 39.8711 24.6084 39.8711L25.3882 39.8711ZM37.8084 28.8492C37.2756 35.3131 31.874 40.2877 25.3882 40.2877L24.6084 40.2877C18.1226 40.2877 12.7211 35.3131 12.1883 28.8492C11.8978 25.3259 12.9862 21.8274 15.224 19.0905L23.877 8.50812C24.4566 7.79938 25.5401 7.79938 26.1196 8.50812L34.7726 19.0905C37.0104 21.8274 38.0988 25.3259 37.8084 28.8492ZM25.2066 34.2121C25.2066 35.0643 24.5044 35.8066 23.617 35.6664C19.872 35.0748 16.9144 32.1171 16.3227 28.3721C16.1825 27.4848 16.9248 26.7825 17.777 26.7825C18.6485 26.7825 19.3025 27.4926 19.4882 28.2859C19.9763 30.371 21.6181 32.0128 23.7032 32.501C24.4965 32.6867 25.2066 33.3406 25.2066 34.2121ZM23.682 35.2549C24.2719 35.3481 24.79 34.8555 24.79 34.2121C24.79 33.588 24.2712 33.0618 23.6083 32.9067C21.3689 32.3824 19.6067 30.6202 19.0825 28.3809C18.9273 27.718 18.4011 27.1992 17.777 27.1992C17.1336 27.1992 16.6411 27.7172 16.7343 28.3071C17.2978 31.8737 20.1154 34.6914 23.682 35.2549Z" fill="#10BB87"/>
</g>
</svg>
