<svg width="32" height="38" viewBox="0 0 32 38" fill="none" xmlns="http://www.w3.org/2000/svg">
<path fill-rule="evenodd" clip-rule="evenodd" d="M31.5072 24.0717C30.8586 31.9401 24.2833 37.9957 16.3882 37.9957L15.6084 37.9957C7.71329 37.9957 1.13801 31.9401 0.489425 24.0717C0.14137 19.8491 1.44568 15.6563 4.12764 12.3764L12.7807 1.79396C14.4437 -0.239865 17.5529 -0.239877 19.216 1.79396L27.869 12.3764C30.5509 15.6563 31.8552 19.8491 31.5072 24.0717ZM16.3882 37.5791C24.0665 37.5791 30.4612 31.6898 31.0919 24.0375C31.4311 19.9225 30.16 15.8365 27.5464 12.6401L18.8934 2.05771C17.3971 0.227765 14.5995 0.227773 13.1032 2.05771L4.4502 12.6401C1.83658 15.8365 0.565497 19.9225 0.904683 24.0375C1.53545 31.6898 7.93014 37.5791 15.6084 37.5791L16.3882 37.5791ZM16.3882 34.8711C22.6571 34.8711 27.8781 30.0628 28.3931 23.815C28.6747 20.3993 27.6196 17.0075 25.45 14.3543L16.797 3.77187C16.3842 3.26703 15.6124 3.26702 15.1996 3.77188L6.54658 14.3543C4.37706 17.0075 3.32196 20.3993 3.60351 23.815C4.1185 30.0628 9.33946 34.8711 15.6084 34.8711L16.3882 34.8711ZM28.8084 23.8492C28.2756 30.3131 22.874 35.2877 16.3882 35.2877L15.6084 35.2877C9.12262 35.2877 3.72106 30.3131 3.18825 23.8492C2.89783 20.3259 3.98617 16.8274 6.22402 14.0905L14.877 3.50812C15.4566 2.79938 16.5401 2.79938 17.1196 3.50812L25.7726 14.0905C28.0104 16.8274 29.0988 20.3259 28.8084 23.8492ZM16.2066 29.2121C16.2066 30.0643 15.5044 30.8066 14.617 30.6664C10.872 30.0748 7.91438 27.1171 7.32271 23.3721C7.18252 22.4848 7.92484 21.7825 8.77702 21.7825C9.64852 21.7825 10.3025 22.4926 10.4882 23.2859C10.9763 25.371 12.6181 27.0128 14.7032 27.501C15.4965 27.6867 16.2066 28.3406 16.2066 29.2121ZM14.682 30.2549C15.2719 30.3481 15.79 29.8555 15.79 29.2121C15.79 28.588 15.2712 28.0618 14.6083 27.9067C12.3689 27.3824 10.6067 25.6202 10.0825 23.3809C9.9273 22.718 9.4011 22.1992 8.77702 22.1992C8.13363 22.1992 7.64108 22.7172 7.73428 23.3071C8.29776 26.8737 11.1154 29.6914 14.682 30.2549Z" fill="#10BB87"/>
</svg>
