<svg width="50" height="50" viewBox="0 0 50 50" fill="none" xmlns="http://www.w3.org/2000/svg">
<path fill-rule="evenodd" clip-rule="evenodd" d="M31.7133 5.87499C32.7303 4.858 34.3791 4.858 35.3961 5.87499L44.1235 14.6023C45.1404 15.6193 45.1404 17.2682 44.1235 18.2852L39.5925 22.8162C38.5755 23.8332 36.9266 23.8332 35.9096 22.8162L32.6508 19.5574L11.342 40.8661L9.13231 38.6564L30.4411 17.3476L27.1823 14.0888C26.1653 13.0718 26.1653 11.423 27.1823 10.406L31.7133 5.87499ZM33.5547 8.45299L29.7603 12.2474L37.751 20.2382L41.5455 16.4438L33.5547 8.45299Z" fill="#10BB87"/>
<path fill-rule="evenodd" clip-rule="evenodd" d="M21.0594 18.9325L21.2873 18.7046C22.3043 17.6876 22.3043 16.0388 21.2873 15.0218L14.1739 7.9084C13.1569 6.89141 11.508 6.89141 10.4911 7.9084L7.73427 10.6652C6.71728 11.6822 6.71728 13.331 7.73427 14.348L14.8476 21.4614C15.8646 22.4784 17.5135 22.4784 18.5305 21.4614L18.8497 21.1422L35.0257 37.3181L33.5407 31.4136L21.0594 18.9325ZM18.7093 16.8632L12.3325 10.4864L10.3123 12.5066L16.6891 18.8834L18.7093 16.8632Z" fill="#10BB87"/>
</svg>
